<?xml version="1.0" standalone="no"?>
<svg version="1.0" xmlns="http://www.w3.org/2000/svg"
 width="1024.000000pt" height="1024.000000pt" viewBox="0 0 1024.000000 1024.000000"
 preserveAspectRatio="xMidYMid meet">
    <rect width="100%" height="100%" fill="#f8f8f8" />
<g transform="translate(0.000000,1024.000000) scale(0.100000,-0.100000)"
fill="#000000" stroke="none">
<path d="M3613 7353 l-613 -3 0 -870 c0 -857 0 -870 20 -890 38 -38 60 -27
267 136 l198 156 435 -3 c432 -3 435 -3 486 20 63 28 116 80 146 146 l23 50
-3 522 c-3 570 -3 568 -62 643 -45 57 -121 91 -212 94 -40 1 -349 1 -685 -1z
m738 -212 l24 -19 3 -505 3 -505 -28 -22 -28 -23 -451 6 -451 6 -116 -94 -117
-94 0 628 c0 345 3 631 7 634 3 4 259 7 569 7 538 0 563 -1 585 -19z"/>
<path d="M3505 6847 c-31 -26 -42 -89 -23 -127 7 -14 30 -33 51 -43 31 -16 42
-17 72 -7 77 25 101 115 46 171 -38 38 -106 41 -146 6z"/>
<path d="M3941 6841 c-77 -72 -7 -194 98 -170 121 27 99 198 -25 199 -33 0
-49 -7 -73 -29z"/>
<path d="M3525 6485 c-36 -35 -32 -68 15 -118 125 -136 337 -148 490 -27 70
55 85 131 31 159 -35 19 -60 12 -116 -34 -60 -48 -88 -59 -150 -59 -63 0 -91
11 -145 59 -58 52 -89 57 -125 20z"/>
<path d="M1644 7336 c-18 -14 -19 -33 -22 -545 -3 -502 -2 -532 15 -539 10 -4
114 -7 230 -7 l213 0 0 -181 0 -182 -205 -4 c-197 -3 -206 -4 -227 -26 l-23
-23 2 -516 c1 -368 5 -519 13 -527 12 -12 1022 -22 1068 -11 22 5 22 6 22 205
l0 200 179 0 178 0 205 -199 c190 -184 209 -200 249 -206 61 -9 741 -2 757 8
9 6 12 92 12 373 l0 366 -29 29 c-22 21 -39 29 -66 29 -75 0 -105 -42 -105
-144 l0 -65 -256 -3 -256 -3 -24 -28 c-23 -27 -24 -34 -24 -185 l0 -156 -182
181 c-101 99 -194 186 -207 193 -19 10 -72 11 -228 6 l-203 -8 0 226 c0 223 0
225 -24 253 l-24 28 -206 3 -206 3 0 186 0 185 183 -6 c201 -7 242 0 264 44
10 19 13 146 13 543 l0 517 -533 0 c-445 0 -536 -2 -553 -14z m896 -536 l0
-360 -360 0 -360 0 0 360 0 360 360 0 360 0 0 -360z m0 -1475 l0 -365 -360 0
-360 0 0 360 0 360 278 3 c152 1 314 3 360 5 l82 2 0 -365z m1580 -255 l0
-100 -190 0 -190 0 0 100 0 100 190 0 190 0 0 -100z"/>
<path d="M5550 4279 l0 -281 -47 42 c-84 73 -181 110 -294 110 -153 0 -268
-47 -375 -154 -113 -113 -159 -233 -158 -406 2 -167 42 -275 145 -385 75 -80
185 -139 296 -157 137 -23 296 21 392 107 l41 37 0 -61 0 -61 125 0 125 0 0
745 0 745 -125 0 -125 0 0 -281z m-165 -383 c60 -30 112 -84 147 -155 32 -65
33 -214 2 -282 -31 -66 -78 -114 -142 -146 -50 -25 -68 -28 -152 -28 -79 0
-103 4 -142 23 -207 102 -224 424 -31 564 87 64 217 73 318 24z"/>
<path d="M6010 3815 l0 -745 125 0 125 0 0 153 0 152 71 64 c38 35 73 60 77
56 4 -3 73 -100 153 -213 l146 -207 153 -3 c84 -1 150 1 148 6 -1 5 -93 136
-203 291 -110 155 -204 288 -209 295 -7 10 5 30 44 73 29 32 120 131 202 221
l150 162 -155 0 -155 0 -29 -34 c-15 -19 -110 -122 -210 -230 l-183 -195 0
449 0 450 -125 0 -125 0 0 -745z"/>
<path d="M7210 4250 l0 -140 -95 0 -95 0 0 -105 0 -105 95 0 95 0 0 -298 c0
-356 4 -380 81 -454 68 -66 125 -82 299 -83 l135 0 3 112 3 111 -88 -1 c-68
-2 -96 2 -120 16 -60 32 -63 48 -63 337 l0 260 134 0 135 0 3 105 3 105 -137
0 -138 0 0 140 0 140 -125 0 -125 0 0 -140z"/>
<path d="M2070 4141 c-59 -19 -110 -54 -158 -106 l-52 -57 0 71 0 71 -120 0
-120 0 0 -525 0 -525 125 0 125 0 0 333 c0 382 3 402 73 462 110 94 273 66
340 -59 21 -40 22 -53 25 -389 l4 -348 121 3 122 3 5 350 c5 330 6 352 25 385
34 58 92 91 168 97 89 7 131 -2 174 -40 62 -55 63 -59 63 -447 l0 -350 125 0
125 0 0 373 c0 299 -3 384 -15 430 -50 192 -194 287 -416 275 -107 -6 -193
-43 -268 -113 l-49 -46 -47 50 c-72 77 -135 103 -253 107 -53 2 -108 0 -122
-5z"/>
<path d="M3827 4134 c-187 -45 -345 -191 -399 -368 -25 -84 -29 -223 -9 -306
46 -187 186 -333 376 -393 105 -33 282 -31 383 5 93 34 156 74 225 146 156
164 190 418 85 632 -38 77 -148 192 -225 233 -116 62 -302 84 -436 51z m288
-238 c58 -27 118 -89 149 -155 17 -38 21 -65 21 -151 0 -119 -15 -162 -84
-233 -64 -68 -101 -82 -221 -82 -99 0 -108 2 -160 31 -65 37 -110 92 -140 171
-29 77 -25 196 10 263 66 129 148 179 295 179 63 1 90 -4 130 -23z"/>
<path d="M7905 3979 c54 -78 135 -193 181 -257 l83 -116 -66 -95 c-108 -156
-293 -429 -293 -433 0 -1 60 -2 132 -2 l133 2 115 165 c63 91 119 165 123 164
4 -1 59 -77 121 -167 l113 -165 152 -3 c83 -1 151 1 151 4 0 4 -84 126 -186
272 l-186 264 20 27 c10 15 89 129 175 254 l156 227 -138 0 -138 0 -108 -155
c-59 -86 -112 -158 -116 -161 -4 -2 -57 67 -116 155 l-108 160 -148 1 -148 0
96 -141z"/>
</g>
</svg>
